<svg width="1297" height="256" viewBox="0 0 1297 256" fill="none" xmlns="http://www.w3.org/2000/svg">
<path d="M0.0274658 32C0.0274658 14.3269 14.3544 0 32.0275 0H224.027C241.701 0 256.027 14.3269 256.027 32V224C256.027 241.673 241.701 256 224.027 256H32.0275C14.3544 256 0.0274658 241.673 0.0274658 224V32Z" fill="#198754"/>
<path fill-rule="evenodd" clip-rule="evenodd" d="M122.953 47.4937C107.75 50.2383 107.719 50.2469 106.348 52.264C105.977 52.8089 99.4828 71.852 91.9154 94.5818L78.1568 135.909L68.8778 145.178C59.1054 154.94 57.2807 157.154 55.3748 161.556C53.5748 165.715 53.0275 168.489 53.0275 173.456C53.0275 177.151 53.1513 178.398 53.7328 180.565C56.663 191.478 64.481 199.305 75.3804 202.239C79.1502 203.254 85.8106 203.254 89.5804 202.239C96.8931 200.27 99.2052 198.611 110.723 187.066L119.981 177.785L161.257 164.009C183.959 156.433 202.979 149.93 203.523 149.559C205.499 148.212 205.573 147.974 208.372 133.99L211.027 120.724L210.468 119.256C209.515 116.759 209.288 116.677 193.611 113.174C185.886 111.448 179.476 109.945 179.366 109.834C179.257 109.723 178.515 103.79 177.717 96.6504C176.169 82.7933 175.932 81.685 174.258 80.4916C173.104 79.6685 171.838 79.4692 157.957 77.9238C151.675 77.2247 146.483 76.6034 146.42 76.5434C146.358 76.4835 145.613 70.204 144.767 62.589C143.788 53.7818 143.055 48.3717 142.754 47.7218C142.044 46.1906 140.449 45.1131 138.727 45.0022C137.862 44.9466 131.477 45.9551 122.953 47.4937ZM134.049 55.9296C134.058 56.0572 134.663 61.4466 135.394 67.9063L136.722 79.6512L136.079 80.5784C135.208 81.8345 95.0437 137.636 93.5077 139.724L92.2886 141.38L88.0956 137.215L101.05 98.3877C108.175 77.0333 114.113 59.4512 114.246 59.3168C114.461 59.0979 132.172 55.7933 133.492 55.7256C133.789 55.7101 134.04 55.8019 134.049 55.9296ZM156.104 87.6897C161.537 88.2899 166.191 88.815 166.446 88.8565C166.819 88.9167 167.158 91.1075 168.198 100.209C169.405 110.755 169.455 111.519 168.97 111.987C168.685 112.263 154.715 122.396 137.925 134.505L107.398 156.522L99.3766 148.49L120.155 119.634C131.582 103.763 141.677 89.7642 142.587 88.5251C144.149 86.399 144.297 86.2815 145.234 86.4351C145.78 86.5245 150.671 87.0891 156.104 87.6897ZM187.981 122.04C194.558 123.51 199.986 124.751 200.044 124.798C200.241 124.958 196.864 141.08 196.549 141.483C196.376 141.704 178.786 147.724 157.46 154.863L118.684 167.841L114.509 163.628L117.094 161.745C131.821 151.01 175.606 119.419 175.788 119.397C175.917 119.381 181.404 120.57 187.981 122.04ZM96.5258 159.547L110.414 173.456L103.47 180.408L75.5403 152.444L78.928 149.041C80.7912 147.17 82.3878 145.639 82.4764 145.639C82.565 145.639 88.8871 151.898 96.5258 159.547ZM96.0087 187.894C95.257 188.8 91.4409 191.057 89.2717 191.877C87.118 192.692 86.6447 192.753 82.4804 192.753C78.3161 192.753 77.8429 192.692 75.6891 191.877C70.787 190.023 67.1577 186.803 64.8947 182.3C61.4082 175.363 62.2528 167.201 67.0916 161.072L68.3554 159.471L82.3499 173.48C93.2002 184.342 96.2689 187.58 96.0087 187.894Z" fill="#F8F9FA"/>
<path d="M320.349 62.5064H347.177L377.663 157.557L408.149 62.5064H434.977L388.544 199.123H366.782L320.349 62.5064ZM304.027 62.5064H331.793L336.952 167.221V199.123H304.027V62.5064ZM423.533 62.5064H451.392V199.123H418.374V167.221L423.533 62.5064Z" fill="#198754"/>
<path d="M523.715 173.602V131.753C523.715 128.876 523.308 126.405 522.495 124.341C521.682 122.276 520.4 120.681 518.649 119.555C516.898 118.367 514.553 117.772 511.614 117.772C509.238 117.772 507.205 118.179 505.517 118.992C503.828 119.805 502.546 121.025 501.671 122.652C500.795 124.278 500.358 126.342 500.358 128.844H468.746C468.746 124.153 469.778 119.805 471.841 115.802C473.968 111.736 476.969 108.202 480.846 105.199C484.786 102.197 489.476 99.8822 494.917 98.2558C500.42 96.5668 506.549 95.7224 513.302 95.7224C521.369 95.7224 528.561 97.0673 534.877 99.7571C541.256 102.447 546.29 106.482 549.979 111.861C553.669 117.178 555.514 123.871 555.514 131.941V173.508C555.514 180.138 555.889 185.174 556.639 188.614C557.39 191.992 558.453 194.964 559.829 197.528V199.123H528.123C526.622 195.996 525.497 192.18 524.746 187.676C524.058 183.11 523.715 178.418 523.715 173.602ZM527.56 137.102L527.748 153.991H513.771C510.832 153.991 508.331 154.398 506.267 155.211C504.266 156.024 502.64 157.15 501.389 158.589C500.201 159.965 499.326 161.529 498.763 163.28C498.263 165.032 498.012 166.877 498.012 168.816C498.012 170.693 498.45 172.382 499.326 173.883C500.264 175.322 501.514 176.448 503.078 177.261C504.641 178.074 506.392 178.481 508.331 178.481C511.833 178.481 514.803 177.824 517.242 176.51C519.744 175.134 521.651 173.476 522.964 171.537C524.277 169.598 524.934 167.784 524.934 166.095L531.875 179.044C530.625 181.546 529.186 184.079 527.56 186.644C525.997 189.209 524.027 191.586 521.651 193.775C519.337 195.902 516.492 197.653 513.115 199.03C509.738 200.343 505.642 201 500.827 201C494.573 201 488.82 199.718 483.567 197.153C478.376 194.588 474.218 191.023 471.091 186.456C467.964 181.827 466.401 176.51 466.401 170.505C466.401 165.251 467.339 160.559 469.215 156.431C471.153 152.302 474.061 148.799 477.939 145.922C481.816 143.044 486.756 140.855 492.759 139.353C498.763 137.852 505.829 137.102 513.959 137.102H527.56Z" fill="#198754"/>
<path d="M626.523 97.599V119.555H565.363V97.599H626.523ZM578.214 72.3586H609.826V166.001C609.826 168.691 610.139 170.787 610.764 172.288C611.389 173.727 612.452 174.759 613.953 175.384C615.517 175.947 617.58 176.229 620.144 176.229C621.958 176.229 623.459 176.198 624.647 176.135C625.835 176.01 626.961 175.853 628.024 175.666V198.279C625.335 199.155 622.521 199.811 619.581 200.249C616.642 200.75 613.515 201 610.201 201C603.447 201 597.663 199.937 592.847 197.81C588.095 195.683 584.468 192.336 581.966 187.77C579.465 183.204 578.214 177.261 578.214 169.942V72.3586Z" fill="#198754"/>
<path d="M681.961 176.604C684.9 176.604 687.401 176.072 689.465 175.009C691.591 173.883 693.186 172.319 694.249 170.317C695.374 168.253 695.906 165.782 695.843 162.905H725.579C725.642 170.536 723.765 177.23 719.951 182.985C716.199 188.677 711.071 193.118 704.567 196.308C698.126 199.436 690.841 201 682.711 201C674.769 201 667.827 199.718 661.887 197.153C655.946 194.526 650.974 190.898 646.972 186.269C643.032 181.577 640.062 176.104 638.061 169.848C636.122 163.593 635.153 156.806 635.153 149.487V147.329C635.153 140.01 636.122 133.223 638.061 126.968C640.062 120.65 643.032 115.177 646.972 110.548C650.974 105.856 655.914 102.228 661.793 99.6632C667.734 97.036 674.644 95.7224 682.523 95.7224C690.966 95.7224 698.407 97.3175 704.848 100.508C711.352 103.698 716.449 108.327 720.138 114.395C723.828 120.462 725.642 127.812 725.579 136.445H695.843C695.906 133.38 695.437 130.627 694.436 128.188C693.436 125.748 691.872 123.809 689.746 122.37C687.682 120.869 685.025 120.118 681.773 120.118C678.521 120.118 675.895 120.838 673.893 122.276C671.892 123.715 670.36 125.717 669.297 128.281C668.297 130.784 667.609 133.661 667.233 136.914C666.921 140.167 666.764 143.638 666.764 147.329V149.487C666.764 153.24 666.921 156.775 667.233 160.09C667.609 163.343 668.328 166.22 669.391 168.722C670.454 171.162 671.986 173.101 673.987 174.54C675.988 175.916 678.646 176.604 681.961 176.604Z" fill="#198754"/>
<path d="M770.042 55V199.123H738.43V55H770.042ZM766.29 144.889L758.879 145.077C758.879 137.946 759.755 131.378 761.506 125.373C763.257 119.368 765.758 114.144 769.01 109.703C772.262 105.262 776.17 101.821 780.735 99.3817C785.3 96.9422 790.366 95.7224 795.931 95.7224C800.934 95.7224 805.499 96.4417 809.627 97.8805C813.817 99.3192 817.412 101.634 820.414 104.824C823.478 108.014 825.823 112.174 827.449 117.303C829.138 122.433 829.982 128.688 829.982 136.069V199.123H798.183V135.882C798.183 131.753 797.589 128.563 796.4 126.311C795.275 123.997 793.649 122.401 791.523 121.526C789.396 120.587 786.801 120.118 783.737 120.118C780.047 120.118 777.046 120.744 774.732 121.995C772.418 123.246 770.636 124.997 769.385 127.249C768.197 129.439 767.384 132.035 766.946 135.037C766.508 138.04 766.29 141.324 766.29 144.889Z" fill="#198754"/>
<path d="M903.836 152.771H869.88V127.343H903.836C908.464 127.343 912.216 126.561 915.093 124.997C917.969 123.434 920.064 121.275 921.378 118.523C922.753 115.708 923.441 112.549 923.441 109.046C923.441 105.293 922.753 101.821 921.378 98.6311C920.064 95.4409 917.969 92.8762 915.093 90.937C912.216 88.9353 908.464 87.9344 903.836 87.9344H882.262V199.123H849.337V62.5064H903.836C914.78 62.5064 924.192 64.5081 932.071 68.5116C940.013 72.515 946.11 78.0197 950.363 85.0257C954.615 91.9692 956.741 99.9135 956.741 108.859C956.741 117.679 954.615 125.373 950.363 131.941C946.11 138.509 940.013 143.638 932.071 147.329C924.192 150.957 914.78 152.771 903.836 152.771Z" fill="#343A40"/>
<path d="M967.716 149.393V147.423C967.716 139.979 968.779 133.129 970.906 126.874C973.032 120.556 976.159 115.083 980.286 110.454C984.413 105.825 989.51 102.228 995.576 99.6632C1001.64 97.036 1008.65 95.7224 1016.59 95.7224C1024.59 95.7224 1031.63 97.036 1037.69 99.6632C1043.82 102.228 1048.95 105.825 1053.08 110.454C1057.2 115.083 1060.33 120.556 1062.46 126.874C1064.58 133.129 1065.65 139.979 1065.65 147.423V149.393C1065.65 156.775 1064.58 163.624 1062.46 169.942C1060.33 176.198 1057.2 181.671 1053.08 186.362C1048.95 190.991 1043.85 194.588 1037.79 197.153C1031.72 199.718 1024.72 201 1016.78 201C1008.83 201 1001.8 199.718 995.67 197.153C989.541 194.588 984.413 190.991 980.286 186.362C976.159 181.671 973.032 176.198 970.906 169.942C968.779 163.624 967.716 156.775 967.716 149.393ZM999.328 147.423V149.393C999.328 153.209 999.609 156.775 1000.17 160.09C1000.74 163.405 1001.67 166.314 1002.99 168.816C1004.3 171.256 1006.08 173.164 1008.33 174.54C1010.58 175.916 1013.4 176.604 1016.78 176.604C1020.09 176.604 1022.84 175.916 1025.03 174.54C1027.28 173.164 1029.06 171.256 1030.38 168.816C1031.69 166.314 1032.63 163.405 1033.19 160.09C1033.75 156.775 1034.04 153.209 1034.04 149.393V147.423C1034.04 143.732 1033.75 140.26 1033.19 137.008C1032.63 133.692 1031.69 130.784 1030.38 128.281C1029.06 125.717 1027.28 123.715 1025.03 122.276C1022.78 120.838 1019.96 120.118 1016.59 120.118C1013.27 120.118 1010.49 120.838 1008.24 122.276C1006.05 123.715 1004.3 125.717 1002.99 128.281C1001.67 130.784 1000.74 133.692 1000.17 137.008C999.609 140.26 999.328 143.732 999.328 147.423Z" fill="#343A40"/>
<path d="M1113.11 97.599V199.123H1081.41V97.599H1113.11ZM1079.53 71.4203C1079.53 66.9165 1081.16 63.2258 1084.41 60.3483C1087.66 57.4709 1091.88 56.0321 1097.07 56.0321C1102.26 56.0321 1106.48 57.4709 1109.73 60.3483C1112.99 63.2258 1114.61 66.9165 1114.61 71.4203C1114.61 75.9242 1112.99 79.6148 1109.73 82.4923C1106.48 85.3698 1102.26 86.8085 1097.07 86.8085C1091.88 86.8085 1087.66 85.3698 1084.41 82.4923C1081.16 79.6148 1079.53 75.9242 1079.53 71.4203Z" fill="#343A40"/>
<path d="M1163.67 119.274V199.123H1132.06V97.599H1161.7L1163.67 119.274ZM1159.92 144.889L1152.51 145.077C1152.51 137.32 1153.45 130.408 1155.32 124.341C1157.2 118.21 1159.86 113.018 1163.3 108.765C1166.74 104.511 1170.83 101.29 1175.58 99.1003C1180.4 96.8483 1185.75 95.7224 1191.62 95.7224C1196.31 95.7224 1200.6 96.4105 1204.48 97.7866C1208.42 99.1628 1211.79 101.383 1214.61 104.449C1217.48 107.514 1219.67 111.58 1221.17 116.647C1222.74 121.651 1223.52 127.844 1223.52 135.225V199.123H1191.72V135.131C1191.72 131.065 1191.16 127.969 1190.03 125.842C1188.9 123.653 1187.28 122.151 1185.15 121.338C1183.03 120.525 1180.43 120.118 1177.37 120.118C1174.11 120.118 1171.36 120.744 1169.11 121.995C1166.86 123.246 1165.05 124.997 1163.67 127.249C1162.36 129.439 1161.39 132.035 1160.76 135.037C1160.2 138.04 1159.92 141.324 1159.92 144.889Z" fill="#343A40"/>
<path d="M1294.53 97.599V119.555H1233.37V97.599H1294.53ZM1246.22 72.3586H1277.83V166.001C1277.83 168.691 1278.14 170.787 1278.77 172.288C1279.39 173.727 1280.46 174.759 1281.96 175.384C1283.52 175.947 1285.58 176.229 1288.15 176.229C1289.96 176.229 1291.46 176.198 1292.65 176.135C1293.84 176.01 1294.96 175.853 1296.03 175.666V198.279C1293.34 199.155 1290.52 199.811 1287.59 200.249C1284.65 200.75 1281.52 201 1278.2 201C1271.45 201 1265.67 199.937 1260.85 197.81C1256.1 195.683 1252.47 192.336 1249.97 187.77C1247.47 183.204 1246.22 177.261 1246.22 169.942V72.3586Z" fill="#343A40"/>
</svg>
