<svg width="512" height="512" viewBox="0 0 512 512" fill="none" xmlns="http://www.w3.org/2000/svg">
<path d="M0 64C0 28.6538 28.6538 0 64 0H448C483.346 0 512 28.6538 512 64V448C512 483.346 483.346 512 448 512H64C28.6538 512 0 483.346 0 448V64Z" fill="#198754"/>
<path fill-rule="evenodd" clip-rule="evenodd" d="M233.946 70.0605C196.997 76.7309 196.922 76.752 193.589 81.6541C192.688 82.9785 176.904 129.26 158.512 184.503L125.074 284.943L102.522 307.471C78.7716 331.197 74.3369 336.576 69.7049 347.276C65.3302 357.383 64 364.126 64 376.197C64 385.178 64.3008 388.209 65.7143 393.474C72.8357 419.996 91.8364 439.02 118.326 446.15C127.488 448.617 143.676 448.617 152.838 446.15C170.61 441.366 176.23 437.334 204.223 409.273L226.723 386.718L327.04 353.238C382.214 334.824 428.439 319.02 429.761 318.118C434.565 314.844 434.745 314.266 441.547 280.279L448 248.038L446.64 244.471C444.325 238.401 443.773 238.202 405.671 229.689C386.896 225.494 371.317 221.84 371.052 221.571C370.786 221.3 368.982 206.882 367.044 189.53C363.281 155.852 362.704 153.158 358.636 150.258C355.831 148.258 352.755 147.773 319.017 144.017C303.75 142.318 291.133 140.808 290.98 140.663C290.828 140.517 289.019 125.255 286.962 106.748C284.582 85.3432 282.802 72.1946 282.07 70.6149C280.345 66.8936 276.469 64.275 272.283 64.0053C270.181 63.8701 254.661 66.3212 233.946 70.0605ZM260.914 90.563C260.936 90.8733 262.406 103.971 264.182 119.671L267.409 148.216L265.847 150.469C263.73 153.522 166.115 289.14 162.382 294.214L159.419 298.241L149.229 288.116L180.714 193.752C198.03 141.853 212.462 99.1219 212.784 98.7952C213.308 98.2633 256.351 90.2318 259.56 90.0673C260.282 90.0297 260.891 90.2528 260.914 90.563ZM314.516 167.752C327.72 169.211 339.03 170.487 339.649 170.588C340.558 170.734 341.379 176.059 343.909 198.178C346.84 223.809 346.962 225.665 345.785 226.805C345.092 227.474 311.14 252.101 270.334 281.532L196.142 335.041L176.646 315.521L227.144 245.389C254.918 206.817 279.452 172.794 281.663 169.783C285.459 164.615 285.82 164.33 288.097 164.703C289.423 164.92 301.312 166.293 314.516 167.752ZM391.989 251.238C407.973 254.81 421.165 257.826 421.305 257.939C421.784 258.328 413.576 297.512 412.811 298.49C412.392 299.026 369.64 313.659 317.81 331.008L223.571 362.549L213.425 352.312L219.706 347.734C255.499 321.645 361.913 244.866 362.354 244.812C362.668 244.773 376.004 247.664 391.989 251.238ZM169.717 342.393L203.472 376.196L186.596 393.093L118.715 325.129L126.948 316.86C131.477 312.312 135.357 308.591 135.572 308.591C135.787 308.591 151.153 323.802 169.717 342.393ZM168.461 411.285C166.634 413.489 157.359 418.974 152.087 420.967C146.853 422.947 145.703 423.095 135.582 423.095C125.461 423.095 124.311 422.947 119.076 420.967C107.162 416.462 98.3418 408.636 92.8418 397.691C84.3685 380.831 86.4212 360.994 98.1813 346.098L101.253 342.207L135.265 376.254C161.635 402.653 169.093 410.523 168.461 411.285Z" fill="#F8F9FA"/>
</svg>
